<svg xmlns="http://www.w3.org/2000/svg" viewBox="0 0 420 100" width="420" height="100" role="img" aria-label="charge2camp">
<g transform="translate(0,4) scale(0.92)">
<rect width="100" height="100" rx="24" fill="#0F3B36"/>
<circle cx="64" cy="62" r="8" fill="#C6F24E"/>
<circle cx="64" cy="62" r="3" fill="#0F3B36"/>
<path d="M40 62V48c0-5 3-8 7-10l7-2.5c2-.5 3-.5 5-.5h26c3 0 5 2 5 5v22Z" fill="#F2F0E8"/>
<rect x="64" y="42" width="15" height="10" rx="2.5" fill="#0F3B36"/>
<rect x="48" y="41" width="9" height="19" rx="2" fill="#0F3B36"/>
<path d="M40 60h-7" stroke="#F2F0E8" stroke-width="4" stroke-linecap="round"/>
<circle cx="31" cy="60" r="4.5" fill="#F2F0E8"/>
<rect x="12" y="22" width="18" height="48" rx="7" fill="#C6F24E"/>
<rect x="16" y="27" width="10" height="12" rx="2.5" fill="#0F3B36"/>
<path d="M23 44 17 56h4l-1.5 10L26 54h-4Z" fill="#0F3B36"/>
</g>
<text x="120" y="66" font-family="Manrope, system-ui, sans-serif" font-size="44" font-weight="700" fill="#0F3B36">charge<tspan fill="#1D9E75">2</tspan>camp</text>
</svg>
